<svg width="39" height="40" viewBox="0 0 39 40" fill="none" xmlns="http://www.w3.org/2000/svg">
<path d="M23.4036 14.4918C24.9763 14.4918 26.2513 13.2168 26.2513 11.644C26.2513 10.0713 24.9763 8.79626 23.4036 8.79626C21.8308 8.79626 20.5558 10.0713 20.5558 11.644C20.5558 13.2168 21.8308 14.4918 23.4036 14.4918Z" stroke="black" stroke-width="1.71" stroke-linecap="round" stroke-linejoin="round"/>
<path d="M12.0125 28.7306C12.7989 28.7306 13.4364 28.0931 13.4364 27.3067C13.4364 26.5203 12.7989 25.8828 12.0125 25.8828C11.2261 25.8828 10.5886 26.5203 10.5886 27.3067C10.5886 28.0931 11.2261 28.7306 12.0125 28.7306Z" stroke="black" stroke-width="1.71" stroke-linecap="round" stroke-linejoin="round"/>
<path d="M12.0126 18.7634C13.5853 18.7634 14.8603 17.4884 14.8603 15.9156C14.8603 14.3429 13.5853 13.0679 12.0126 13.0679C10.4398 13.0679 9.16479 14.3429 9.16479 15.9156C9.16479 17.4884 10.4398 18.7634 12.0126 18.7634Z" stroke="black" stroke-width="1.71" stroke-linecap="round" stroke-linejoin="round"/>
<path d="M26.3083 35.2236C26.2766 34.6711 26.0846 34.14 25.7559 33.6949C25.4272 33.2501 24.9759 32.9103 24.4573 32.7175C23.1692 32.2941 22.0745 31.4252 21.3698 30.267C20.6651 29.1086 20.3968 27.737 20.613 26.3985C20.8292 25.06 21.5158 23.8426 22.5493 22.9651C23.5829 22.0876 24.8956 21.6075 26.2514 21.6112H31.5767C32.4899 21.6138 33.3907 21.3966 34.2026 20.9781C35.0142 20.5596 35.7136 19.9519 36.2413 19.2064C36.769 18.4609 37.1096 17.5994 37.2346 16.6947C37.3596 15.7899 37.2651 14.8683 36.9589 14.0077C35.8264 10.8096 33.8364 7.98425 31.2067 5.84046C28.5771 3.69663 25.4089 2.31679 22.0481 1.85166C18.6874 1.38653 15.2634 1.85403 12.1504 3.20306C9.03732 4.5521 6.35493 6.73075 4.39623 9.50106C2.43754 12.2713 1.27791 15.5267 1.04404 18.9114C0.810164 22.2961 1.51104 25.68 3.07011 28.6933C4.62915 31.7066 6.98642 34.2337 9.88436 35.9979C12.7823 37.7623 16.1094 38.6964 19.5022 38.6978C21.1777 38.7024 22.8456 38.4726 24.4573 38.0144C25.0492 37.8486 25.5619 37.4753 25.9016 36.963C26.2414 36.4507 26.3858 35.8336 26.3083 35.2236Z" stroke="black" stroke-width="1.71" stroke-linecap="round" stroke-linejoin="round"/>
</svg>
