<svg width="396" height="396" viewBox="0 0 396 396" fill="none" xmlns="http://www.w3.org/2000/svg">
<path d="M82.2032 214.73C82.0874 214.541 71.7669 195.96 64.4748 183.452C64.3074 183.024 63.9792 182.679 63.5604 182.49C63.1416 182.301 62.6655 182.283 62.2339 182.44C48.6762 184.968 37.0104 187.089 19.4434 190.49C24.8854 203.414 20.3921 193.795 34.1148 223.296C34.3179 223.806 34.5209 224.212 35.2344 224.009C40.4316 222.99 45.6289 222.191 50.8223 221.163C59.3857 219.442 80.2658 215.239 82.2032 214.73Z" fill="#F8B6B2"/>
<path d="M152.194 135.976C151.788 135.976 151.174 135.263 151.075 134.753C150.443 131.496 139.138 69.9605 138.849 68.9377C138.417 67.4197 139.05 66.471 140.682 66.2812C146.375 65.619 228.299 56.7937 232.988 56.2966C234.005 56.1903 234.633 56.3934 234.923 57.5186C235.787 60.8696 249.58 118.855 250.714 123.844C250.79 124.142 250.798 124.453 250.736 124.754C250.675 125.055 250.547 125.339 250.361 125.584C250.175 125.828 249.936 126.028 249.662 126.168C249.388 126.307 249.086 126.383 248.779 126.39C244.703 126.703 153.621 136.077 152.194 135.976Z" fill="#043F6D"/>
<path d="M83.9337 231.846C83.4821 228.688 82.3455 226.294 85.1576 225.428C87.315 224.762 87.2961 224.815 87.2961 221.149C87.0917 217.137 88.3596 213.187 90.8615 210.043C92.5022 207.658 94.5978 205.621 97.0279 204.047C99.4579 202.474 102.175 201.396 105.022 200.875C109.668 199.896 110.84 199.281 123.259 200.772C127.624 201.296 139.703 203.74 145.27 203.829C152.12 203.939 158.153 201.529 156.065 194.964C153.208 185.926 144.815 182.126 135.79 176.422C131.261 173.558 127.521 170.991 130.798 166.131C132.35 163.988 134.417 162.271 136.809 161.139C143.462 157.652 143.177 158.082 146.487 157.572C146.487 157.369 146.487 156.961 146.69 156.86C148.018 155.841 147.591 154.621 147.301 153.395C146.814 150.654 146.918 147.841 147.606 145.143C147.81 144.4 148.247 143.741 148.852 143.263C149.456 142.786 150.198 142.513 150.969 142.487C155.357 142.145 251.13 132.104 255.198 131.588C256.708 131.335 258.257 131.434 259.723 131.875C261.189 132.317 262.534 133.09 263.654 134.134C272.803 142.189 290.114 155.642 299.108 163.069C299.98 163.629 300.636 164.468 300.969 165.448C301.303 166.429 301.293 167.494 300.943 168.469C300.512 169.727 300.131 174.054 294.727 174.684C278.323 176.596 211.1 183.313 188.467 185.993C176.56 187.401 164.094 179.22 156.375 170.2C153.853 167.443 151.664 164.401 149.853 161.133C149.65 160.522 148.316 160.614 148.02 160.318C147.306 159.196 146.39 159.604 145.473 159.91C140.569 161.092 136.131 163.719 132.735 167.45C128.967 172.04 136.741 174.109 146.999 181C152.616 184.773 158.743 191.533 158.614 198.013C158.529 199.458 158.059 200.853 157.253 202.054C156.447 203.255 155.334 204.219 154.029 204.844C143.257 209.607 124.377 201.753 111.239 202.603C103.079 203.129 96.3073 206.296 92.0853 213.609C90.3287 216.521 89.4773 219.889 89.6395 223.286C89.6395 224.102 89.8425 224.713 90.8615 224.916C92.7988 225.121 93.1233 226.745 93.518 228.278C94.0568 230.411 94.0322 230.366 96.1745 230.113C126.254 226.599 114.201 227.487 123.988 226.546C125.405 226.522 126.8 226.902 128.01 227.641C129.219 228.38 130.194 229.448 130.819 230.72C135.32 240.551 151.678 272.957 152.113 278.298C152.314 279.471 152.055 280.675 151.391 281.662C150.726 282.649 149.707 283.341 148.545 283.596C144.708 285.223 140.714 286.452 136.625 287.264C136.401 287.317 96.7152 295.634 90.5749 296.23C88.7382 296.408 82.3227 296.74 79.6738 295.313C73.3437 293.334 68.5981 282.073 65.9207 275.959C54.1942 249.179 54.3839 248.445 53.8982 243.052C53.7557 241.805 54.0841 240.549 54.8191 239.531C55.5541 238.514 56.6426 237.807 57.8715 237.55C64.0763 235.982 70.2926 234.662 76.5164 233.271C80.4954 232.379 83.5637 232.218 83.9337 231.846ZM59.38 250.898C59.1938 250.931 59.0175 251.006 58.8646 251.117C58.7117 251.229 58.5863 251.373 58.4979 251.54C58.4094 251.708 58.3604 251.893 58.3544 252.082C58.3485 252.271 58.3858 252.459 58.4635 252.631C61.6381 259.8 75.4784 288.697 76.0894 289.511C76.8484 290.27 147.409 276.31 147.61 276.266C147.824 276.221 148.025 276.127 148.198 275.994C148.371 275.86 148.511 275.689 148.609 275.493C148.707 275.298 148.76 275.083 148.763 274.864C148.766 274.645 148.721 274.429 148.629 274.23C145.267 267.247 132.939 240.914 131.931 238.876C131.808 238.697 131.638 238.556 131.441 238.466C131.243 238.377 131.025 238.342 130.81 238.367C122.859 239.692 69.9757 248.963 59.38 250.898ZM152.602 160.936C154.713 164.903 157.39 168.541 160.549 171.737C170.348 181.034 181.448 184.336 185 184.07C188.258 183.822 286.378 173.207 293.505 172.355C294.673 172.299 295.786 171.843 296.658 171.064C297.529 170.285 298.107 169.231 298.294 168.076C298.457 167.461 298.449 166.812 298.269 166.202C298.089 165.591 297.746 165.041 297.275 164.612C285.405 154.792 273.507 144.779 261.718 134.863C261.133 134.294 260.423 133.869 259.645 133.621C258.867 133.373 258.043 133.31 257.236 133.436C250.122 134.485 161.879 143.883 151.788 144.95C148.31 145.316 149.215 146.249 150.056 154.729C150.147 155.648 150.667 155.951 151.574 155.951C152.553 155.937 153.513 156.222 154.325 156.767C155.085 157.575 155.643 158.55 155.955 159.614C156.363 160.43 155.955 160.942 155.039 160.942C154.23 161.042 153.411 161.04 152.602 160.936Z" fill="#043F6D"/>
<path d="M285.664 90.332C284.748 87.2751 283.932 84.3207 282.913 81.4688C282.561 76.9656 282.87 72.435 283.83 68.0212C285.348 67.2622 287.355 71.6056 290.046 74.4386C292.179 76.6852 292.49 79.5333 293.306 82.1823C293.714 83.5105 294.12 84.7287 294.528 86.0532C294.583 86.0595 294.639 86.0537 294.692 86.036C294.745 86.0182 294.793 85.9891 294.833 85.9507C294.63 84.6224 293.814 71.4842 293.814 66.5962C293.814 63.5602 296.108 60.4236 299.012 61.8069C301.795 63.1352 302.029 65.9188 302.474 69.0402C304.615 68.8371 304.882 69.0402 305.321 71.1806C305.758 73.4008 305.758 75.6851 305.321 77.9053C305.11 78.744 304.837 79.0893 304.302 78.8218C304.097 76.1653 303.486 70.7726 303.383 70.7726C303.2 71.476 303.064 72.1911 302.977 72.913C303.283 77.701 303.691 82.489 304.199 87.277C304.199 87.5617 304.476 89.0246 305.321 88.6053C306.627 80.9726 308.363 73.4199 310.522 65.9833C311.034 63.989 312.457 62.1219 314.495 62.824C315.039 63.1799 315.466 63.6895 315.72 64.2882C315.974 64.8869 316.044 65.5476 315.922 66.1863C315.922 66.3894 315.82 66.4918 315.82 66.6968C316.33 66.888 316.765 67.2396 317.058 67.6986C317.352 68.1577 317.49 68.6996 317.45 69.2432C317.501 71.5885 317.501 73.8257 317.45 76.171C317.43 76.4206 317.321 76.6546 317.142 76.8293C316.963 77.004 316.726 77.1073 316.476 77.1199C316.226 77.1325 315.98 77.0534 315.784 76.8976C315.588 76.7418 315.456 76.5199 315.412 76.2734C315.366 75.5192 315.264 74.7695 315.106 74.0306C309.753 100.797 313.569 87.8083 319.996 74.3361C320.563 73.3415 321.247 72.4184 322.034 71.5866C322.817 70.4202 323.706 69.3289 324.69 68.3267C324.839 68.0724 325.046 67.8568 325.294 67.6972C325.542 67.5377 325.824 67.4387 326.117 67.4083C327.034 67.4083 327.15 68.0193 327.237 68.9377C327.482 71.4804 327.85 73.93 328.155 76.4765C328.324 77.3266 328.036 77.6928 322.449 90.0265C322.036 90.9411 322.449 91.4383 323.163 91.8614C323.988 92.3548 324.895 92.8804 325.709 93.2864C326.342 93.6123 326.846 94.1411 327.142 94.788C327.437 95.435 327.507 96.1625 327.339 96.8537C326.539 101.966 319.823 139.018 319.087 143.616C317.29 154.824 300.913 152.709 289.847 150.34C284.289 149.153 284.68 145.786 283.327 139.95C282.594 136.794 274.238 101.212 272.834 96.1403C271.526 91.4572 280.87 90.074 285.664 90.332ZM324.184 97.9733C307.882 101.438 291.784 101.744 275.89 96.1403C280.304 118.202 282.38 124.21 287.71 144.527C288.37 147.048 289.968 146.726 290.867 147.183C303.142 148.511 307.916 150.029 313.383 147.489C314.149 147.213 314.828 146.736 315.347 146.109C315.867 145.482 316.209 144.727 316.338 143.923C323.819 103.884 321.539 113.334 324.184 97.9733ZM285.162 80.9584C285.966 85.9541 287.33 90.8436 289.226 95.535C289.338 95.7808 289.515 95.9919 289.737 96.146C291.57 96.4515 293.403 96.6545 295.34 96.8594C295.032 95.6279 290.306 80.5409 290.245 80.3512C289.329 78.004 284.756 80.4498 285.162 80.9584ZM323.368 78.004C322.859 78.1064 322.347 78.5258 321.84 78.4119C321.43 78.3208 321.127 77.6985 320.719 77.1899C317.968 83.6073 314.607 89.7134 312.161 96.4458C313.994 96.2408 315.524 96.0378 317.051 95.8348C317.793 95.8348 317.884 95.387 324.284 80.4498C324.622 79.7535 323.935 78.9508 323.368 78.004ZM308.596 76.5789C307.169 83.5997 305.939 90.129 304.52 96.9543C305.947 96.8537 306.863 96.7513 307.882 96.7513C309.571 96.7513 308.611 96.7949 312.975 77.6985C311.436 77.2924 310.021 76.985 308.596 76.5789ZM302.482 96.9543C301.839 87.9564 301.397 83.7875 301.154 79.6339C301.025 77.3949 300.746 76.9774 298.402 77.1899C297.783 77.3257 297.171 77.4955 296.569 77.6985C297.18 84.1177 297.791 90.5369 298.302 96.9543H302.482ZM300.649 74.7535C300.241 71.5961 299.852 68.2299 299.222 64.9738C298.827 62.934 296.776 63.9549 296.471 64.4634C296.065 65.0267 295.851 65.705 295.86 66.3989C296.023 73.2412 296.471 73.8864 296.471 75.67C297.886 75.355 299.12 75.0515 300.649 74.7535ZM288.116 76.486C286.181 73.5316 286.181 73.5316 284.856 73.9395C284.245 78.5239 283.837 77.8104 285.162 77.8104C286.238 77.6178 287.261 77.1688 288.116 76.486ZM322.757 75.467C324.184 74.653 324.184 74.653 325.603 76.689H325.909C325.809 75.3645 325.707 74.0401 325.603 72.7156C325.07 72.5146 324.526 72.3448 323.973 72.2071C322.032 74.3361 322.043 74.3456 322.757 75.467Z" fill="#043F6D"/>
<path d="M29.8341 330.163C28.8542 330.301 27.8596 330.301 26.8797 330.163C26.6955 330.121 26.5246 330.034 26.3825 329.909C26.2404 329.784 26.1315 329.626 26.0657 329.449C25.9632 329.246 26.3712 328.838 26.5742 328.533C26.9297 328.171 27.3606 327.892 27.8362 327.716C28.3117 327.54 28.8203 327.471 29.3256 327.514C47.1924 324.163 337.373 271.158 369.712 264.857C372.707 264.272 374.528 267.175 372.158 267.703C370.054 268.183 30.0239 330.129 29.8341 330.163Z" fill="#043F6D"/>
<path d="M376.335 276.166C376.689 276.029 377.081 276.025 377.437 276.157C377.794 276.288 378.09 276.545 378.27 276.879C378.067 277.999 377.151 278.207 376.234 278.509C260.676 306.192 43.0331 346.159 32.5854 346.159C32.5854 341.8 101.47 336.328 376.335 276.166Z" fill="#043F6D"/>
<path d="M80.2658 168.985C77.4196 171.431 69.3742 170.192 66.5128 168.374C64.5505 167.127 62.946 165.391 61.8566 163.337C60.7672 161.283 60.2303 158.981 60.2984 156.657C60.0043 146.809 68.3647 143.542 73.6436 147.997C74.0515 148.303 74.4595 148.711 74.765 147.997C75.5758 146.438 76.7652 145.108 78.224 144.129C79.6829 143.15 81.3643 142.553 83.114 142.394C93.3795 140.621 98.5862 139.557 113.984 142.496C118.576 143.373 121.005 147.284 120.607 152.276C119.959 159.479 117.111 166.309 112.447 171.837C110.787 173.92 108.38 175.273 105.738 175.609C101.053 176.331 96.2996 176.501 91.5749 176.118C85.7876 175.636 82.1994 170.642 80.2658 168.985ZM76.1919 150.851C75.8696 154.515 76.501 158.2 78.0249 161.547C80.0409 165.623 82.9281 169.206 86.482 172.042C87.7703 173.216 89.4295 173.901 91.1708 173.978C96.7226 174.408 102.307 174.1 107.778 173.061C108.332 172.899 108.827 172.58 109.205 172.143C114.669 166.505 119.092 157.9 118.781 149.832C118.605 145.263 113.831 143.876 109.307 143.21C99.22 141.722 77.1748 140.722 76.1919 150.851ZM93.0019 143.616C109.622 141.908 120.275 147.077 115.926 149.016C108.176 152.471 95.2428 154.464 80.4708 150.646C78.9395 150.251 76.3874 148.179 79.7573 146.265C82.095 144.933 90.148 143.908 93.0019 143.616ZM73.8485 151.665C73.9738 151.037 73.8652 150.385 73.543 149.832C72.8913 149.032 72.0384 148.42 71.0719 148.059C70.1055 147.698 69.0603 147.601 68.0438 147.777C67.0273 147.953 66.076 148.397 65.2877 149.063C64.4995 149.728 63.9026 150.592 63.5584 151.564C62.9067 153.08 62.5813 154.717 62.6033 156.367C62.6253 158.017 62.9942 159.644 63.6861 161.142C64.3779 162.64 65.3772 163.976 66.619 165.063C67.8608 166.15 69.3174 166.963 70.8941 167.45C73.589 168.522 76.5642 168.665 79.3494 167.856C78.8408 167.143 78.3304 166.528 77.9224 165.921C71.9814 168.035 60.4996 156.976 67.9397 151.76C68.7746 151.091 69.8082 150.719 70.8779 150.701C71.9475 150.684 72.9925 151.023 73.8485 151.665ZM77.4139 165.215C75.323 161.88 74.1621 158.046 74.0515 154.111C73.8877 153.703 73.6344 153.337 73.3104 153.041C72.9864 152.744 72.5999 152.524 72.1794 152.396C71.7589 152.269 71.3151 152.237 70.8808 152.304C70.4466 152.371 70.0328 152.534 69.6702 152.783C64.0365 155.91 71.0288 165.215 77.4139 165.215ZM91.8804 146.878C89.0342 145.451 83.9337 145.959 82.3038 148.507C85.5637 147.906 88.5143 147.386 91.8804 146.878Z" fill="#043F6D"/>
<path d="M145.777 140.866C146.185 145.145 143.957 141.475 143.842 140.764C143.206 136.88 131.178 74.1369 130.698 70.7707C130.235 68.622 130.447 66.3829 131.304 64.359C132.161 62.3351 133.622 60.6248 135.487 59.4616C136.567 58.9078 137.742 58.5621 138.95 58.4427C141.593 58.0005 226.979 50.0272 230.645 49.8849C242.079 49.4409 241.018 50.9589 257.642 128.538C257.642 130.679 256.035 129.959 255.809 129.047C255.53 127.92 255.069 126.813 254.79 125.686C240.016 65.953 240.21 58.3136 238.897 55.8962C238.382 54.6994 237.507 53.6929 236.393 53.0171C235.279 52.3412 233.982 52.0297 232.682 52.1259C229.626 52.3346 138.637 60.6646 137.117 61.602C133.561 63.7784 133.512 66.8884 133.041 69.7518C133.143 69.8542 144.758 134.957 145.777 140.866Z" fill="#043F6D"/>
<path d="M73.0326 218.601C70.6986 219.058 62.0271 220.927 59.9929 221.353C56.8222 222.015 49.1279 223.146 35.9478 226.039C35.4331 226.194 34.8924 226.242 34.3585 226.182C33.8246 226.121 33.3085 225.952 32.8417 225.686C32.3748 225.42 31.9669 225.062 31.6427 224.633C31.3185 224.205 31.0847 223.715 30.9555 223.193C17.081 190.237 17.5478 191.218 17.8134 189.361C17.8134 188.731 17.2726 189.017 54.7957 181.822C57.4522 181.315 60.0992 180.828 62.7424 180.192C63.9682 179.898 64.5773 180.6 65.0858 181.52C77.7232 204.267 72.5506 195.941 81.9982 211.269C82.8142 212.597 83.4422 213.907 84.2392 215.142C84.761 215.948 84.3398 216.559 83.5276 216.772C82.8218 216.952 75.9908 218.022 73.0326 218.601ZM82.2032 214.73C82.0874 214.541 71.7669 195.96 64.4748 183.452C64.3074 183.024 63.9792 182.679 63.5604 182.49C63.1416 182.301 62.6655 182.283 62.2339 182.44C48.6762 184.968 37.0104 187.089 19.4434 190.49C24.8854 203.414 20.3921 193.795 34.1148 223.296C34.3179 223.806 34.5209 224.212 35.2344 224.009C40.4316 222.99 45.6289 222.191 50.8223 221.163C59.3857 219.442 80.2658 215.239 82.2032 214.73Z" fill="#043F6D"/>
<path d="M23.8247 131.587C21.6331 132.026 20.5876 129.085 22.8058 128.531C25.652 128.189 131.369 118.929 134.773 118.648C136.198 118.531 136.709 118.749 136.811 119.768C136.914 120.787 136.606 121.297 135.483 121.297C131.667 121.305 24.4262 131.587 23.8247 131.587Z" fill="#043F6D"/>
<path d="M341.288 185.082C335.487 183.501 338.739 185.069 323.764 179.479C319.816 177.817 316.113 175.623 312.759 172.959C312.051 172.471 311.255 172.125 310.415 171.94C309.797 171.854 309.213 171.601 308.728 171.207C308.243 170.813 307.876 170.293 307.666 169.705C307.455 169.117 307.411 168.482 307.536 167.87C307.662 167.258 307.953 166.692 308.378 166.234C310.74 163.425 313.796 161.283 317.243 160.02C323.172 157.521 329.06 158.392 334.867 160.428C343.536 163.464 354.261 166.621 356.878 175.099C357.285 176.657 357.188 178.303 356.603 179.803C356.017 181.302 354.972 182.578 353.618 183.448C346.396 187.427 344.46 185.947 341.288 185.082ZM315.41 173.367C321.799 177.358 328.78 180.315 336.092 182.127C334.903 180.94 337.432 182.442 316.123 173.162C315.292 172.61 314.911 173.116 315.41 173.367ZM321.929 160.122C317.837 161.071 312.063 163.621 309.704 167.05C308.66 168.568 309.089 169.612 310.928 170.107C320.421 172.566 329.513 176.374 337.925 181.414C342.601 183.773 346.295 185.767 352.394 180.702C355.24 178.342 355.35 176.319 353.411 173.162C351.853 170.505 349.502 168.404 346.688 167.152C341.903 165.107 337.011 163.28 332.017 161.547C328.772 160.448 325.351 159.964 321.929 160.122Z" fill="#043F6D"/>
<path d="M305.528 210.248C305.731 206.376 308.674 204.867 312.047 206.784C312.237 206.895 338.269 221.244 358.608 232.969C360.411 234.946 362.015 237.096 363.396 239.388C363.864 240.098 363.635 240.906 362.479 240.906C353.447 239.902 361.46 243.085 308.176 213.203C307.26 212.387 305.936 211.573 305.528 210.248ZM357.284 233.986L318.871 212.184C318.563 211.923 318.202 211.732 317.812 211.626C317.423 211.519 317.015 211.499 316.617 211.567C316.219 211.635 315.841 211.79 315.509 212.019C315.178 212.249 314.9 212.549 314.696 212.897C313.861 213.899 313.886 214.415 315.002 215.036C332.576 224.772 354.483 237.551 354.94 237.551C355.654 236.432 356.367 235.208 357.284 233.986ZM360.544 237.449L359.016 235.005C357.079 235.819 356.265 236.838 356.36 238.468C357.792 238.265 359.422 239.284 360.544 237.449ZM308.173 211.165C308.987 209.941 309.7 208.821 310.516 207.598C310.271 207.462 310 207.378 309.721 207.351C309.442 207.323 309.161 207.354 308.894 207.44C308.627 207.526 308.381 207.666 308.17 207.851C307.96 208.036 307.789 208.262 307.67 208.516C306.954 209.738 307.256 210.757 308.173 211.165ZM312.044 213.609C313.063 212.281 313.979 211.265 314.89 210.146C314.171 210.098 313.458 210.307 312.879 210.737C312.301 211.166 311.893 211.787 311.731 212.489C311.742 212.8 312.044 213.303 312.044 213.609ZM310.006 212.59C310.924 211.072 311.636 209.933 312.249 208.719C310.719 209.024 309.7 209.84 309.592 211.165C309.649 211.66 309.786 212.142 310.006 212.59Z" fill="#043F6D"/>
<path d="M116.842 170.513C123.032 171.591 121.269 184.461 99.6241 185.795C91.2239 186.313 72.8011 183.017 75.987 176.424C76.2537 175.643 76.7432 174.957 77.395 174.452C78.0468 173.946 78.8324 173.642 79.6548 173.577C79.4998 173.886 79.2496 174.136 78.9414 174.291C78.4234 174.564 77.993 174.978 77.6998 175.485C77.4065 175.992 77.2623 176.571 77.2837 177.157C77.3051 177.742 77.4913 178.309 77.8208 178.794C78.1502 179.278 78.6097 179.659 79.1463 179.894C88.3188 185.469 107.17 186.072 116.639 178.376C117.157 177.993 117.592 177.508 117.916 176.951C118.239 176.394 118.446 175.776 118.522 175.136C118.598 174.497 118.543 173.848 118.359 173.23C118.175 172.613 117.867 172.039 117.453 171.545C117.148 171.329 117.045 170.921 116.842 170.513Z" fill="#043F6D"/>
<path d="M330.387 102.763C328.907 102.763 328.624 101.51 329.673 100.725C331.402 98.8613 353.527 97.4648 353.718 97.4648C354.232 97.4243 354.74 97.5893 355.132 97.9236C355.523 98.258 355.766 98.7342 355.807 99.2475C355.847 99.7608 355.682 100.269 355.348 100.661C355.013 101.052 354.537 101.295 354.024 101.336C346.179 102.263 338.287 102.739 330.387 102.763Z" fill="#043F6D"/>
<path d="M262.635 106.226C270.604 105.317 271.921 105.18 273.027 105.818C273.236 105.914 273.412 106.071 273.531 106.267C273.651 106.464 273.709 106.692 273.698 106.922C273.687 107.152 273.607 107.374 273.47 107.558C273.332 107.743 273.142 107.882 272.925 107.958C271.505 108.475 270.037 108.85 268.543 109.079C264.982 109.52 261.31 109.793 257.642 109.996C256.115 110.199 253.356 107.284 262.635 106.226Z" fill="#043F6D"/>
<path d="M293.402 199.448C292.691 198.531 291.885 197.41 290.348 198.021C290.042 198.123 286.955 198.345 286.173 197.002C284.706 194.497 279.097 193.017 276.902 192.827C256.075 190.596 246.669 194.843 236.354 200.672C234.367 201.524 235.81 201.091 229.424 198.839C217.114 194.222 196.302 195.256 176.446 207.907C173.881 209.488 171.691 211.608 170.029 214.121C168.742 216.047 167.769 215.713 164.934 216.967C164.629 217.037 164.346 217.181 164.11 217.386C163.874 217.591 163.693 217.852 163.582 218.144C163.471 218.436 163.434 218.752 163.474 219.062C163.514 219.372 163.631 219.667 163.813 219.922C165.443 222.673 194.989 272.188 197.638 276.773C198.453 278.2 199.064 278.505 200.592 278.2C206.197 276.976 253.409 267.809 263.862 265.566C265.52 265.117 267.241 264.944 268.955 265.056C272.501 265.482 276.075 264.531 278.94 262.399C279.744 261.81 280.697 261.457 281.691 261.38C286.479 260.769 323.157 255.369 326.926 254.86C338.109 253.694 341.965 262.447 293.402 199.448ZM203.137 273.414C202.378 272.655 170.355 219.81 170.228 219.62C171.118 218.73 168.331 214.971 202.626 271.581C203.721 273.405 203.73 272.82 203.137 273.414ZM219.233 268.319C231.811 262.754 245.326 259.608 259.069 259.048L219.233 268.319ZM223.309 264.652C232.172 260.17 241.443 257.318 250.919 257.724C241.489 259.009 232.229 261.332 223.309 264.652ZM205.683 272.395C194.068 253.446 182.453 234.529 170.839 215.647C188.224 200.846 211.434 195.213 231.053 202.199C233.475 203.038 235.528 204.695 236.859 206.886C253.644 232.612 268.536 254.72 270.581 258.132C246.233 250.593 225.041 257.215 205.683 272.395ZM273.027 257.724C261.107 239.792 249.084 221.658 236.961 203.524C248.382 194.07 272.382 193.006 284.336 197.41C285.241 197.638 322.556 246.335 323.356 247.536C314.753 245.693 305.828 246.008 297.376 248.453C288.871 250.404 280.677 253.524 273.027 257.724ZM315.613 248.963C308.592 249.982 301.146 250.898 293.81 251.917C303.592 249.269 312.761 248.147 315.613 248.963ZM284.031 256.502C283.949 256.382 283.913 256.238 283.928 256.094C286.272 255.483 288.718 254.766 291.264 254.361C296.399 253.582 316.656 250.527 321.929 250.287C322.62 250.296 323.305 250.399 323.967 250.593C310.522 252.631 297.275 254.566 284.031 256.502Z" fill="#043F6D"/>
<path d="M308.176 211.165C306.089 210.235 307.841 206.309 310.417 207.598C309.704 208.816 308.89 209.941 308.176 211.165Z" fill="#F8B6B2"/>
<path d="M128.865 276.471C128.66 277.591 128.047 278.122 127.03 277.999C122.227 277.416 128.506 280.181 107.979 268.014C102.626 264.841 80.6738 253.01 80.6738 248.963C81.1729 248.464 86.909 249.343 87.8065 249.88C133.214 277.306 125.605 272.397 128.865 276.471ZM107.571 266.078C108.085 266.593 117.557 272.232 124.381 276.266C125.089 276.685 125.4 276.369 125.808 275.86C126.216 275.247 125.808 274.946 125.299 274.636C123.383 273.473 111.95 266.477 108.284 264.346C108.082 264.938 107.844 265.516 107.571 266.078Z" fill="#043F6D"/>
<path d="M257.337 137.301C259.2 137.587 257.906 136.853 285.966 161.039C287.025 161.744 286.249 162.466 285.558 162.466C281.687 162.872 189.484 173.374 185.308 173.978C184.655 174.085 183.985 174.008 183.373 173.756C182.761 173.504 182.231 173.087 181.843 172.551C161.919 148.39 161.281 148.452 161.568 147.589C162.371 145.984 257.113 137.265 257.337 137.301ZM180.315 154.824C179.091 155.027 178.175 155.23 177.156 155.333C176.239 155.538 177.054 155.843 177.666 155.843C181.293 154.836 182.845 157.223 187.038 162.466C185.613 162.669 184.492 162.771 183.37 162.974C182.351 163.382 183.27 163.28 183.37 163.382C184.352 163.49 185.343 163.49 186.325 163.382C186.833 163.263 187.365 163.296 187.854 163.477C188.343 163.658 188.768 163.98 189.076 164.401C190.046 165.371 191.066 166.288 192.133 167.15C192.438 167.355 192.744 167.558 192.438 166.845C191.419 165.725 190.503 164.604 189.382 163.484C189.361 163.46 189.346 163.43 189.34 163.398C189.334 163.366 189.336 163.333 189.346 163.302C189.357 163.271 189.375 163.243 189.399 163.222C189.423 163.2 189.452 163.184 189.484 163.177C191.114 162.974 198.042 162.058 201.607 161.752C202.122 161.821 202.594 162.075 202.935 162.466C205.56 165.09 209.106 169.202 208.03 167.05C206.603 165.317 205.184 163.484 203.649 161.752C204.057 161.547 206.914 161.283 214.755 160.424C218.322 160.044 219.465 159.587 220.561 160.832C221.7 162.133 222.905 163.378 224.026 164.703C224.535 165.517 224.943 165.111 224.332 164.397C223.313 162.868 222.191 161.443 221.072 159.813C225.451 159.302 229.732 158.794 234.111 158.283C235.629 158.283 237.398 161.629 239.409 162.97L239.715 162.665C238.595 161.238 237.576 159.819 236.455 158.386C236.168 157.817 236.094 158.173 248.375 156.551C249.804 156.361 250.718 156.145 251.737 157.57C253.572 160.832 254.394 161.34 253.673 159.507C253.367 158.997 252.654 157.57 252.248 156.756C252.218 156.703 252.203 156.644 252.204 156.584C252.205 156.523 252.222 156.464 252.253 156.413C252.284 156.361 252.328 156.318 252.381 156.289C252.433 156.26 252.493 156.245 252.553 156.246C254.183 156.042 258.261 155.246 261.925 154.821C265.289 154.43 266.316 153.794 267.528 155.126C268.452 156.139 269.466 157.061 270.484 158.08C271.196 158.894 271.502 158.691 270.891 157.775L268.044 154.31C267.995 154.272 267.96 154.22 267.944 154.16C267.927 154.1 267.931 154.037 267.954 153.979C267.977 153.922 268.018 153.873 268.071 153.841C268.124 153.809 268.186 153.795 268.247 153.802L271.712 152.885C272.526 152.68 272.12 152.477 271.61 152.477C266.845 152.91 267.225 153.771 264.682 150.745C263.566 149.416 259.587 146.058 258.976 145.447C259.305 145.256 259.645 145.086 259.995 144.936C260.709 144.733 260.709 144.428 259.69 144.631C259.114 144.753 258.515 144.719 257.957 144.53C257.754 144.428 256.227 142.595 255.716 141.982C255.105 141.473 255.105 141.779 255.411 142.187L256.739 144.325C256.768 144.378 256.783 144.438 256.782 144.498C256.781 144.558 256.765 144.617 256.734 144.669C256.703 144.721 256.659 144.763 256.606 144.793C256.553 144.822 256.494 144.837 256.434 144.836C252.155 145.344 247.976 145.855 243.8 146.261C242.439 146.261 241.902 145.341 240.438 144.122C240.03 143.409 239.724 143.714 240.235 144.325C240.743 145.039 241.151 145.752 241.661 146.466C241.865 146.874 241.762 146.974 241.559 146.974C239.624 147.382 235.751 147.475 233.4 147.79C227.489 148.583 227.17 148.72 224.842 145.955C224.313 145.362 223.734 144.817 223.11 144.325C222.804 143.919 222.601 144.225 222.804 144.631C223.723 145.752 224.842 147.179 225.861 148.401C225.882 148.426 225.895 148.456 225.901 148.488C225.907 148.519 225.905 148.552 225.895 148.582C225.884 148.613 225.866 148.641 225.843 148.662C225.819 148.684 225.79 148.699 225.759 148.707C224.231 148.809 217.916 149.119 215.163 149.623C212.924 150.035 212.506 149.929 210.783 147.893C210.33 147.236 209.818 146.622 209.254 146.058C208.541 145.141 208.746 145.855 208.949 146.363C209.662 147.382 210.375 148.504 211.089 149.623C211.11 149.67 211.122 149.721 211.123 149.772C211.124 149.824 211.115 149.875 211.096 149.922C211.077 149.97 211.048 150.014 211.012 150.05C210.975 150.086 210.932 150.115 210.884 150.134C206.197 150.847 201.634 151.576 197.032 152.272C195.349 152.528 195.934 151.893 193.262 149.217L192.956 149.523C193.569 150.542 194.285 151.458 195.097 152.578C191.123 153.291 187.251 153.794 183.38 154.616C182.81 154.782 182.199 154.74 181.657 154.497C181.116 154.253 180.679 153.824 180.425 153.287C177.879 150.13 177.471 150.333 177.879 150.843C178.557 152.248 179.373 153.581 180.315 154.824Z" fill="#F8B6B2"/>
<path d="M181.537 180.294C181.348 180.105 179.723 178.862 181.74 178.359C185.915 177.849 290.245 165.928 294.727 165.42C295.605 165.42 296.218 166.5 294.829 166.845C284.091 168.232 183.695 179.862 181.537 180.294Z" fill="#043F6D"/>
<path d="M151.583 147.183C179.46 178.492 180.118 177.609 178.888 178.664C178.175 179.275 177.672 178.556 177.258 178.053C171.932 171.564 150.056 148.001 150.056 147.589C150.056 147.284 150.048 145.456 151.583 147.183Z" fill="#043F6D"/>
<path d="M195.596 217.685C194.416 218.29 193.277 218.969 192.939 218.093C192.533 216.466 201.129 212.726 202.008 212.387C210.007 209.25 218.595 207.894 227.172 208.413C228.651 208.575 230.116 208.848 231.553 209.229C235.95 211.421 214.956 207.765 195.596 217.685Z" fill="#043F6D"/>
<path d="M232.377 216.055C234.821 217.074 232.478 217.383 232.07 217.383C227.118 217.412 222.19 218.062 217.4 219.318C217.095 219.421 214.649 219.115 216.992 217.99C226.083 215.077 228.091 215.066 232.377 216.055Z" fill="#043F6D"/>
<path d="M274.046 237.348C272.824 235.413 271.6 233.578 270.378 231.745C270.2 231.628 269.999 231.55 269.789 231.515C269.578 231.479 269.363 231.488 269.156 231.54C268.13 231.823 267.016 232.151 265.894 232.356C266.507 230.929 267.932 230.624 269.156 229.808C268.238 228.28 267.424 226.753 266.5 225.123C262.826 226.451 263.046 226.383 262.016 226.039C262.635 225.111 261.547 225.47 265.786 223.696C264.562 221.556 263.443 219.521 262.219 217.379C261.405 217.685 260.589 217.99 259.673 218.296C259.673 216.871 260.895 216.778 261.507 216.157C260.589 214.222 259.673 212.284 258.756 210.246C258.859 210.146 258.805 208.58 260.386 210.757C263.043 214.411 263.285 215.444 264.054 215.444C267.416 214.73 270.676 213.914 274.039 213.1C270.574 206.783 270.065 204.643 275.261 212.081C275.378 212.426 275.623 212.713 275.945 212.883C276.267 213.054 276.642 213.095 276.993 212.998C279.435 212.761 281.883 212.692 284.532 212.59C284.192 211.976 283.919 211.327 283.718 210.654C281.061 202.402 285.143 210.043 285.143 210.146C287.017 215.77 291.558 211.026 293.492 214.628C291.862 214.527 290.129 214.425 288.091 214.322C289.213 216.055 290.129 217.582 291.148 219.112C291.387 219.588 296.382 219.148 297.873 220.63C296.141 221.546 294.408 220.63 292.473 221.241C293.289 222.569 294.103 223.897 295.021 225.214C295.122 225.419 295.632 225.419 296.038 225.419C297.568 225.519 298.994 225.519 300.522 225.622C300.943 225.711 301.353 225.848 301.744 226.03C301.744 226.77 302.347 226.185 296.241 227.149C297.158 228.679 297.974 230.206 298.993 231.633C299.522 232.164 301.27 231.796 305.41 232.041C305.81 232.041 307.687 232.709 307.142 233.263C304.901 233.466 302.659 233.671 300.311 233.874C300.487 234.639 300.725 235.389 301.023 236.115C303.679 243.451 303.571 243.756 299.695 237.033C298.936 236.018 298.272 234.282 297.251 234.282C294.594 234.69 292.053 235.098 289.304 235.504C290.017 237.236 291.342 240.701 291.748 242.026C292.666 244.47 291.137 242.229 291.036 242.126C288.452 238.468 287.699 236.218 286.553 236.218C283.496 236.828 280.541 237.546 277.484 238.153C278.403 239.783 279.217 241.312 280.033 242.84C280.746 243.961 279.93 243.756 279.522 243.145C278.911 242.432 278.194 241.817 277.587 241.107C276.877 240.29 276.259 238.969 275.448 238.764C274.373 238.407 273.204 239.422 269.743 240.191C270.378 238.673 272.314 238.367 274.046 237.348ZM267.627 222.982C270.887 222.168 274.046 221.25 277.204 220.436C276.39 218.601 275.473 216.871 274.547 214.833C271.185 215.444 267.716 216.161 264.054 216.871C265.386 219.009 266.5 221.047 267.627 222.982ZM271.906 230.624C273.234 232.662 274.454 234.597 275.676 236.432C275.758 236.537 275.872 236.613 276 236.65C276.128 236.686 276.264 236.681 276.39 236.635C279.344 235.819 282.401 235.005 285.456 234.089C284.439 232.356 283.42 230.726 282.401 229.096C282.327 228.979 282.219 228.887 282.092 228.832C281.964 228.778 281.823 228.763 281.687 228.791C278.528 229.402 275.371 230.013 271.906 230.624ZM281.076 227.058C280.26 225.631 279.344 224.212 278.528 222.779C278.164 222.049 276.697 222.861 268.443 224.409C269.359 226.039 270.073 227.256 270.887 228.584C271.092 228.789 271.5 229.094 271.805 228.992C274.86 228.383 277.917 227.772 281.076 227.058ZM284.234 228.28C286.839 232.544 287.374 233.783 288.004 233.783C290.661 233.375 293.302 232.865 296.051 232.356C295.135 230.827 294.321 229.402 293.395 227.975C293.108 227.387 292.351 227.442 284.234 228.28ZM276.39 214.628C279.408 220.163 278.501 220.206 282.095 219.825C284.031 219.618 285.966 219.417 288.004 219.212C287.188 217.685 286.397 216.243 285.558 214.933C285.459 214.771 285.325 214.633 285.167 214.527C285.009 214.422 284.83 214.352 284.642 214.322C281.991 214.373 279.344 214.527 276.39 214.628ZM280.363 221.963C281.279 223.593 282.095 224.918 283.019 226.242C283.116 226.367 283.239 226.468 283.38 226.539C283.521 226.609 283.676 226.647 283.833 226.65C286.585 226.345 289.234 225.937 292.086 225.631C288.408 220.127 291.302 221.182 280.363 221.963Z" fill="#043F6D"/>
<path d="M256.115 205.051C255.809 204.135 256.523 203.624 257.236 203.421C267.591 199.607 278.19 200.332 280.158 202.3C281.044 203.186 280.067 203.721 279.446 203.524C272.044 201.167 263.473 203.212 256.115 205.051Z" fill="#043F6D"/>
<path d="M49.09 186.306C52.3356 186.336 55.4998 187.325 58.1847 189.149C60.8695 190.973 62.955 193.55 64.1788 196.556C65.4025 199.562 65.7099 202.863 65.0623 206.044C64.4146 209.224 62.8408 212.142 60.5389 214.43C58.2369 216.718 55.3097 218.275 52.1254 218.904C48.9411 219.532 45.642 219.205 42.6432 217.964C39.6443 216.722 37.0796 214.621 35.2718 211.925C33.4639 209.23 32.4937 206.06 32.483 202.814C32.5046 198.425 34.2643 194.224 37.3769 191.13C40.4894 188.036 44.7012 186.301 49.09 186.306ZM46.646 200.264C46.646 200.161 43.2836 193.539 41.5512 189.974C39.9212 191.501 38.4943 192.82 36.8644 194.252C40.2267 196.391 46.5435 200.264 46.646 200.264ZM36.2534 210.144C37.8833 211.876 39.3102 213.301 40.8377 214.931C42.9781 211.468 47.0539 204.846 47.0539 204.744C46.7693 205.038 39.8472 208.349 36.2534 210.144ZM35.5399 208.816C39.3102 206.88 46.1355 203.313 46.1355 203.212C42.2646 203.007 38.3937 202.907 34.2154 202.702C34.6253 204.848 35.0314 206.681 35.5399 208.816ZM62.029 209.935C62.6419 207.899 63.2529 206.064 63.8639 204.129C59.6894 203.926 51.9438 203.618 51.8413 203.721C55.2037 205.765 58.4636 207.797 62.029 209.935ZM50.6193 188.133C50.4144 192.307 50.1089 200.053 50.2114 200.053C52.2493 196.793 54.2872 193.533 56.5282 189.968C54.4902 189.363 52.6516 188.75 50.6193 188.133ZM48.2759 199.748C48.3784 199.748 48.7845 192.106 48.9894 188.032C46.9515 188.438 45.016 188.949 42.9781 189.361C44.8111 193.029 46.5435 196.385 48.2759 199.748ZM61.1125 211.362C57.7501 209.224 51.3328 205.351 51.2303 205.453C52.9628 208.713 54.6933 211.973 56.4257 215.438C58.0556 214.129 59.4826 212.795 61.1125 211.362ZM45.5245 201.888C45.5245 201.785 39.4127 197.713 36.0503 195.571C35.4393 197.507 34.8264 199.34 34.2154 201.277C38.2913 201.486 41.9591 201.683 45.5245 201.888ZM62.7425 196.996C59.1771 198.729 55.8147 200.359 52.5548 201.989C52.5548 202.091 59.993 202.499 63.9664 202.702C63.5584 200.67 63.1504 198.831 62.7425 196.996ZM55.0007 216.151C53.1658 212.687 49.7028 206.267 49.7028 206.267C49.6004 209.835 49.3955 213.503 49.2949 217.373C51.2303 216.975 52.9627 216.558 55.0007 216.151ZM57.9646 190.992C55.9266 194.252 53.9912 197.207 51.9533 200.161C52.0538 200.264 58.4731 197.002 61.9379 195.271C60.5015 193.844 59.2795 192.418 57.9646 190.992ZM47.4695 217.277C47.775 213.508 48.0805 206.376 47.9799 206.376C46.0445 209.33 44.2096 212.387 42.0711 215.647C43.9971 216.258 45.6403 216.768 47.4695 217.277Z" fill="#043F6D"/>
<path d="M318.262 162.872C319.791 162.872 321.218 162.771 322.643 162.872C323.459 162.974 325.489 165.317 326.108 165.826C324.78 165.623 321.829 165.114 321.624 165.012C320.605 164.401 319.586 163.688 318.262 162.872Z" fill="#043F6D"/>
<path d="M218.928 158.798C217.095 159.001 215.567 159.217 214.038 159.409C210.577 159.843 207.11 160.122 203.645 160.528C203.237 160.528 202.626 160.528 202.423 160.223C200.588 158.084 198.755 155.843 196.717 153.392C198.858 153.086 208.138 151.821 210.778 151.354C211.245 151.229 211.739 151.249 212.195 151.413C212.65 151.577 213.044 151.876 213.324 152.27C214.941 154.325 216.89 156.454 218.928 158.798Z" fill="#F8B6B2"/>
<path d="M264.672 152.786C264.722 152.824 264.757 152.877 264.773 152.937C264.79 152.996 264.786 153.06 264.763 153.117C264.74 153.175 264.699 153.223 264.646 153.255C264.593 153.287 264.531 153.301 264.469 153.295C263.086 153.458 257.356 154.35 251.428 154.824C249.752 154.824 250.938 154.965 244.297 147.993C244.248 147.955 244.213 147.903 244.196 147.843C244.18 147.783 244.184 147.72 244.207 147.662C244.23 147.605 244.271 147.556 244.324 147.524C244.377 147.492 244.439 147.478 244.5 147.485C257.403 145.705 257.403 145.316 257.847 145.752C260.191 148.096 262.405 150.468 264.672 152.786Z" fill="#F8B6B2"/>
<path d="M228.301 149.322C233.005 148.733 239.075 148.168 241.443 147.794C241.911 147.705 242.394 147.742 242.842 147.904C243.29 148.065 243.686 148.344 243.99 148.711C245.764 150.817 247.658 152.885 249.595 155.13C246.692 155.543 247.119 155.407 235.84 156.76C235.413 156.767 234.991 156.662 234.618 156.454C232.478 154.314 230.443 152.073 228.301 149.832V149.322Z" fill="#F8B6B2"/>
<path d="M233.701 157.065C230.237 157.473 226.87 157.672 223.512 158.393C222.343 158.711 221.101 158.621 219.99 158.138C218.879 157.655 217.965 156.808 217.4 155.737C216.284 154.251 215.094 152.823 213.833 151.458C213.795 151.407 213.769 151.348 213.759 151.286C213.749 151.223 213.754 151.159 213.774 151.099C213.795 151.039 213.829 150.984 213.875 150.94C213.921 150.897 213.977 150.865 214.038 150.847C226.459 149.519 224.681 149.637 226.06 149.519C226.671 149.519 226.979 149.923 227.389 150.333C229.645 152.429 231.755 154.678 233.701 157.065Z" fill="#F8B6B2"/>
<path d="M182.659 155.538C186.122 155.027 188.063 154.663 192.235 154.111C194.683 153.786 195.694 152.832 196.92 154.925C198.907 158.318 199.983 158.448 201.507 160.733C195.59 161.39 192.865 161.847 189.281 162.16C187.725 162.16 187.573 161.519 182.556 155.944C182.516 155.92 182.484 155.883 182.466 155.84C182.447 155.796 182.444 155.748 182.455 155.702C182.467 155.657 182.493 155.616 182.53 155.586C182.566 155.557 182.612 155.54 182.659 155.538Z" fill="#F8B6B2"/>
</svg>
