<svg width="40" height="40" viewBox="0 0 40 40" fill="none" xmlns="http://www.w3.org/2000/svg">
<path d="M9.97217 9.06051C9.97217 14.6747 16.0497 18.1835 20.9117 15.3763C23.1682 14.0737 24.5582 11.666 24.5582 9.06051C24.5582 3.44634 18.4807 -0.0624929 13.6187 2.74451C11.3622 4.04734 9.97217 6.45501 9.97217 9.06051Z" stroke="black" stroke-width="1.5"/>
<path d="M31.8511 30.0279C31.8511 34.5592 31.8511 38.2325 17.2651 38.2325C2.67912 38.2325 2.67896 34.5592 2.67896 30.0279C2.67896 25.4965 9.20946 21.8234 17.2651 21.8234C25.3208 21.8234 31.8511 25.4965 31.8511 30.0279Z" stroke="black" stroke-width="1.5"/>
<path d="M33.6746 1.76746C33.6746 1.76746 37.3211 3.95529 37.3211 9.06045C37.3211 14.1656 33.6746 16.3535 33.6746 16.3535" stroke="black" stroke-width="1.5" stroke-linecap="round"/>
<path d="M30.0278 5.41394C30.0278 5.41394 31.8512 6.50777 31.8512 9.06044C31.8512 11.6131 30.0278 12.7069 30.0278 12.7069" stroke="black" stroke-width="1.5" stroke-linecap="round"/>
</svg>
