<svg width="40" height="40" viewBox="0 0 40 40" fill="none" xmlns="http://www.w3.org/2000/svg">
<path d="M2.22241 23.66H11.0481" stroke="black" stroke-width="1.5" stroke-linecap="round" stroke-linejoin="round"/>
<path d="M2.22241 12.4021H33.9828" stroke="black" stroke-width="1.5" stroke-linecap="round" stroke-linejoin="round"/>
<path d="M14.6814 27.0822V37.3967" stroke="black" stroke-width="1.5" stroke-linecap="round" stroke-linejoin="round"/>
<path d="M25.4321 18.102C25.4321 8.65697 22.1507 1.00024 18.1028 1.00024C14.0548 1.00024 10.7734 8.65697 10.7734 18.102C10.7734 20.0477 10.9126 21.9175 11.1692 23.6602" stroke="black" stroke-width="1.5" stroke-linecap="round" stroke-linejoin="round"/>
<path d="M35.0125 20.6671C35.1383 19.8303 35.2036 18.9736 35.2036 18.1018C35.2036 8.65673 27.5468 1 18.1018 1C8.65673 1 1 8.65673 1 18.1018C1 24.7788 4.82639 30.562 10.406 33.3783" stroke="black" stroke-width="1.5" stroke-linecap="round" stroke-linejoin="round"/>
<path d="M15.5412 28.3271C14.3925 27.8092 14.3925 26.3557 15.5412 25.8378C16.5185 25.3971 17.8092 24.8393 19.4702 24.1645C22.1335 23.0825 24.0561 22.3874 25.2381 21.9836C26.1584 21.6691 27.1476 21.6691 28.0678 21.9836C29.2499 22.3874 31.1725 23.0825 33.8357 24.1645C35.4968 24.8393 36.7875 25.3971 37.7648 25.8378C38.9134 26.3557 38.9134 27.8092 37.7648 28.3271C36.7875 28.7679 35.4968 29.3256 33.8357 30.0004C31.1725 31.0824 29.2499 31.7775 28.0678 32.1814C27.1476 32.4959 26.1584 32.4959 25.2381 32.1814C24.0561 31.7775 22.1335 31.0824 19.4702 30.0004C17.8092 29.3256 16.5185 28.7679 15.5412 28.3271Z" stroke="black" stroke-width="1.5" stroke-linecap="round" stroke-linejoin="round"/>
<path d="M19.3845 29.9655V32.6048C19.3845 33.9633 19.4399 34.9225 19.5064 35.5843C19.594 36.4578 20.0888 37.2029 20.8897 37.5624C21.9736 38.049 23.85 38.6261 26.6528 38.6261C29.4556 38.6261 31.332 38.049 32.4159 37.5624C33.2168 37.2029 33.7115 36.4578 33.7992 35.5843C33.8656 34.9225 33.921 33.9633 33.921 32.6048V29.9658" stroke="black" stroke-width="1.5" stroke-linecap="round" stroke-linejoin="round"/>
</svg>
