<svg width="37" height="37" viewBox="0 0 37 37" fill="none" xmlns="http://www.w3.org/2000/svg">
<path d="M1 37V9.25H1.76087C4.28222 9.25 6.32609 11.3206 6.32609 13.875V20.0417V4.625H7.08696C9.60831 4.625 11.6522 6.69563 11.6522 9.25V19.2708H14.6957C17.217 19.2708 19.2609 21.3415 19.2609 23.8958V33.1458H16.2174C14.1163 33.1457 12.413 34.8714 12.413 37M13.9348 23.8958V29.2917M13.9348 26.5937H19.2609M36 0V27.75H35.2391C32.7178 27.75 30.6739 25.6794 30.6739 23.125V16.9583V32.375H29.913C27.3917 32.375 25.3478 30.3044 25.3478 27.75V17.7292H22.3043C19.783 17.7293 17.7391 15.6585 17.7391 13.1042V3.85417H20.7826C22.8836 3.854 24.587 2.12848 24.587 0M23.0652 13.1042V7.70833M23.0652 10.4062H17.7391" stroke="black"/>
</svg>
