<svg width="336" height="175" viewBox="0 0 336 175" fill="none" xmlns="http://www.w3.org/2000/svg">
<path d="M313.999 168C313.999 87.3662 248.633 22 168 22C87.3662 22 22 87.3662 22 168" stroke="#F83225" stroke-width="43"/>
<path d="M313.999 168C313.999 87.3662 248.633 22 167.999 22C119.335 22 76.2323 45.8089 49.7031 82.4136" stroke="#F87125" stroke-width="43"/>
<path d="M313.985 168C313.985 87.3662 248.619 22 167.986 22C152.174 22 136.949 24.5135 122.689 29.1629" stroke="#FDC432" stroke-width="43"/>
<path d="M313.986 168C313.986 103.178 271.742 48.2235 213.283 29.1633" stroke="#99D815" stroke-width="43"/>
<path d="M314.013 167.999C314.013 135.751 303.557 105.944 285.851 81.7843" stroke="#5BB449" stroke-width="43"/>
<path d="M48.3652 130.308L180.191 160.016L176.709 172.598L48.3652 130.308Z" fill="#272525"/>
<path d="M177.477 158.677C182.225 159.991 185.226 164.117 184.181 167.893C183.136 171.669 178.44 173.665 173.693 172.351C168.946 171.038 165.944 166.912 166.989 163.135C168.034 159.359 172.73 157.363 177.477 158.677Z" fill="#272525"/>
</svg>
