<svg width="47" height="47" viewBox="0 0 47 47" fill="none" xmlns="http://www.w3.org/2000/svg">
<path d="M0 0H47V47H0V0Z" fill="white" fill-opacity="0.01"/>
<path d="M37.2083 20.5625L42.1042 29.375L37.2083 30.3542V36.2292H34.2708L28.3958 35.25L27.4167 42.1042H12.7292L10.7708 31.9395C7.75575 29.084 5.875 25.0429 5.875 20.5625C5.875 11.91 12.8892 4.89587 21.5417 4.89587C30.1942 4.89587 37.2083 11.91 37.2083 20.5625Z" stroke="black" stroke-width="2" stroke-linecap="round" stroke-linejoin="round"/>
<path d="M16.6459 18.6042C16.6459 15.9003 18.8378 13.7084 21.5417 13.7084C24.2456 13.7084 26.4375 15.9003 26.4375 18.6042C26.4375 21.3081 24.2456 23.5 21.5417 23.5V26.4375" stroke="black" stroke-width="2" stroke-linecap="round" stroke-linejoin="round"/>
<path d="M21.5416 32.3125V33.2917" stroke="black" stroke-width="2" stroke-linecap="round" stroke-linejoin="round"/>
</svg>
