<svg width="42" height="42" viewBox="0 0 42 42" fill="none" xmlns="http://www.w3.org/2000/svg">
<g clip-path="url(#clip0_42_936)">
<path d="M1.3125 24.9375V40.6875" stroke="black" stroke-width="1.5" stroke-linecap="round" stroke-linejoin="round"/>
<path d="M1.3125 38.0625H27.5625C27.5625 36.6702 27.0093 35.3348 26.0248 34.3502C25.0402 33.3657 23.7048 32.8125 22.3125 32.8125H15.75C15.75 31.4202 15.1969 30.0848 14.2123 29.1002C13.2277 28.1157 11.8924 27.5625 10.5 27.5625H1.3125" stroke="black" stroke-width="1.5" stroke-linecap="round" stroke-linejoin="round"/>
<path d="M10.5 32.8125H15.75" stroke="black" stroke-width="1.5" stroke-linecap="round" stroke-linejoin="round"/>
<path d="M13.447 22.428C12.0604 19.7689 11.5364 16.744 11.9475 13.7735C12.3586 10.8029 13.6846 8.03402 15.7413 5.85147C17.7981 3.66891 20.4833 2.18097 23.4243 1.59429C26.3652 1.00761 29.416 1.3513 32.1526 2.57764C34.8893 3.80399 37.1762 5.85212 38.6957 8.43757C40.2152 11.023 40.8919 14.0175 40.6317 17.0051C40.3717 19.9927 39.1876 22.8251 37.2442 25.1092C35.3007 27.3931 32.6942 29.0152 29.7868 29.75" stroke="black" stroke-width="1.5" stroke-linecap="round" stroke-linejoin="round"/>
<path d="M24.9375 6.5625V17.0625H31.5" stroke="black" stroke-width="1.5" stroke-linecap="round" stroke-linejoin="round"/>
</g>
<defs>
<clipPath id="clip0_42_936">
<rect width="42" height="42" fill="white"/>
</clipPath>
</defs>
</svg>
