<svg width="416" height="371" viewBox="0 0 416 371" fill="none" xmlns="http://www.w3.org/2000/svg">
<path d="M144.411 283.313C148.219 285.718 154.811 281.161 158.752 278.248C161.163 276.476 172.457 265.461 170.174 261.789C169.155 260.258 168.184 258.696 167.262 257.105C172.462 254.321 173.861 245.712 171.702 240.267C169.543 234.822 164.978 230.772 160.535 226.972C152.159 219.884 143.909 212.794 135.533 205.703C129.822 200.765 123.858 195.829 116.624 193.548C109.39 191.396 100.506 192.662 96.0631 198.736C91.7492 204.56 92.6374 212.536 94.9212 219.374C100.379 235.704 112.308 249.378 116.497 265.964C117.766 270.649 118.527 275.965 122.209 279.005C128.299 284.192 135.406 284.448 142.133 279.764C142.483 281.164 143.283 282.41 144.411 283.313Z" fill="#FDB849"/>
<path d="M153.168 282.047C158.77 279.13 163.699 275.076 167.636 270.145C169.14 268.451 170.188 266.404 170.681 264.196C170.769 263.962 170.792 263.71 170.747 263.465C170.702 263.219 170.592 262.991 170.427 262.803C169.92 262.297 169.032 262.55 168.27 262.803C163.404 265.082 158.876 268.022 154.817 271.539C151.391 274.444 145.172 279.262 145.933 284.325C148.476 284.071 150.939 283.295 153.168 282.047Z" fill="black"/>
<path d="M55.7009 181.901C48.8453 190.958 40.4211 198.719 30.8262 204.817C25.3682 208.362 19.4028 211.275 14.962 216.211C8.48904 223.302 6.33208 233.434 7.474 242.925C8.48904 252.42 12.5513 261.282 16.9921 269.765C27.3041 289.045 40.726 306.501 56.7201 321.432C88.7022 320.418 117.51 323.837 149.365 320.924C146.266 309.291 145.361 297.184 146.699 285.222C148.097 273.448 155.582 256.863 152.41 245.342C149.619 235.465 142.385 227.742 135.785 219.894C126.83 209.306 118.765 198 111.672 186.091C108.931 190.723 105.204 194.699 100.754 197.738C96.7317 200.738 91.8133 202.299 86.7927 202.168C83.0414 201.624 79.4501 200.286 76.2596 198.244C68.651 193.816 61.7261 188.311 55.7009 181.901Z" fill="#FFD340"/>
<path d="M12.2974 358.135C52.9073 348.007 95.0419 360.92 136.415 366.871C205.18 376.562 275.291 367.053 338.966 339.398C370.821 325.47 401.782 303.693 416 272.043C350.767 273.309 283.251 254.821 220.811 273.942C150.507 295.464 80.2406 316.986 10.0115 338.51C10.2003 345.105 10.9652 351.672 12.2974 358.135Z" fill="#008C6E"/>
<path d="M197.332 278.121C193.272 276.982 189.21 275.336 185.023 275.589C182.925 275.948 180.786 275.99 178.677 275.716C176.31 274.958 174.23 273.502 172.711 271.539L167.002 265.841C163.219 267.877 159.685 270.341 156.468 273.185C153.26 275.954 150.667 279.36 148.854 283.186C153.041 287.751 160.655 295.086 162.178 296.227C165.86 299.132 170.427 297.62 174.743 297.493L223.476 296.354C223.35 291.722 223.993 287.102 225.381 282.68C215.908 282.048 206.516 280.521 197.332 278.121Z" fill="#DD4040"/>
<path d="M203.171 329.27L279.19 305.216L236.802 300.278L163.066 319.901L203.171 329.27Z" fill="#643CFF"/>
<path d="M203.171 325.219L279.191 301.164L236.802 296.227L163.066 315.851L203.171 325.219ZM176.52 321.549C181.129 322.14 185.47 324.042 189.025 327.027C192.581 330.013 195.2 333.956 196.571 338.385C191.242 344.463 182.358 345.475 174.236 345.602C165.355 346.089 156.448 345.494 147.712 343.83C145.581 343.507 143.546 342.729 141.746 341.547C140.859 340.969 140.129 340.181 139.621 339.253C139.113 338.325 138.843 337.286 138.834 336.229C139.123 334.131 140.215 332.225 141.881 330.913C151.137 321.928 163.447 320.163 176.52 321.549Z" fill="#9778FF"/>
<path d="M66.3526 289.011C69.017 279.769 64.4494 269.506 61.0215 261.029C58.061 253.2 54.23 245.726 49.6002 238.748C47.3468 238.387 45.1038 237.965 42.8735 237.482C41.673 244.003 40.0196 250.433 37.9252 256.726C36.0495 264.086 34.734 271.577 33.9898 279.136C33.3658 284.072 32.8479 288.888 32.4673 293.82C38.9186 302.552 46.0479 310.765 53.7894 318.382C54.1244 315.507 54.7189 312.668 55.5657 309.9C56.84 305.945 58.6774 302.193 61.0215 298.759C63.2608 295.783 65.0564 292.5 66.3526 289.011Z" fill="black"/>
<path d="M122.076 333.828C127.151 339.906 136.035 341.805 143.776 340.033C145.525 339.532 147.306 339.152 149.107 338.894C152.914 338.64 156.595 340.412 160.275 341.678C163.954 342.944 169.92 344.336 172.457 341.045C175.758 341.805 177.915 341.425 179.945 338.763C181.234 338.961 182.553 338.749 183.715 338.158C184.876 337.567 185.822 336.627 186.418 335.47C179.311 330.154 171.062 324.835 162.305 323.435C164.081 321.028 168.778 321.536 171.696 322.296C174.363 322.929 178.042 324.578 180.834 324.447C182.041 324.379 183.213 324.02 184.252 323.403C185.29 322.786 186.164 321.927 186.799 320.901C182.866 319.129 179.057 317.357 175.124 315.714C171.105 313.764 166.894 312.234 162.559 311.149C148.727 308.364 134.895 315.201 122.329 321.785C120.678 325.093 119.663 330.917 122.076 333.828Z" fill="#F7846C"/>
<path d="M154.056 331.93C157.61 333.449 159.767 333.955 162.812 335.601C165.987 337.373 172.457 341.045 172.457 341.045C173.24 341.285 174.052 341.413 174.87 341.425C169.539 335.98 154.309 331.677 154.056 331.93ZM159.387 328.004C163.223 328.916 166.964 330.188 170.56 331.803C173.977 333.662 177.135 335.961 179.952 338.64C180.649 338.894 181.413 338.894 182.111 338.64C179.219 335.959 176.024 333.622 172.591 331.677C168.457 329.642 163.979 328.396 159.387 328.004Z" fill="#DD4040"/>
<path d="M15.977 220.897C22.4499 218.11 30.329 221.276 34.8862 226.719C39.3291 232.164 40.7248 239.507 42.2474 246.344C48.3397 273.564 46.5634 290.403 50.8773 313.699C64.4613 314.715 77.9775 316.49 91.3624 319.015C106.592 322.055 120.805 321.298 138.578 317.496C137.31 323.447 131.727 331.424 128.553 336.74C104.566 333.702 80.7128 337.879 56.5952 340.033C49.1072 340.666 34.1312 341.931 30.9592 337.879C29.4366 335.98 28.4216 328.51 27.912 326.105C27.4045 323.447 26.3894 320.787 25.624 318.129C23.467 310.659 21.3101 303.316 19.2779 295.848C14.4565 278.374 9.75983 260.649 8.99855 242.545C8.36207 233.936 8.23519 224.188 15.977 220.897Z" fill="#F7846C"/>
<path d="M37.1721 338.64C38.314 333.453 35.9012 327.751 29.5572 331.297C29.276 331.421 29.0184 331.592 28.7959 331.803C29.0564 333.944 29.7468 336.01 30.826 337.879C32.4653 339.362 34.5797 340.215 36.7914 340.286C36.9183 339.653 37.0452 339.147 37.1721 338.64Z" fill="#DD4040"/>
<path d="M19.7854 312.431C24.4944 313.034 29.2755 312.734 33.8712 311.545C36.7832 311.039 47.959 307.621 52.3998 302.936C53.1611 300.911 51.0041 298.253 50.8773 296.354C56.7158 296.227 61.9179 289.137 62.4275 283.313C62.9371 277.488 60.6491 271.792 58.3653 266.474C54.0513 256.346 49.8622 246.346 45.5483 236.216C42.6363 229.253 39.5829 222.162 34.1249 216.971C28.667 211.779 20.1661 208.994 13.4393 212.406C7.09326 215.697 4.17502 223.293 3.15998 230.384C0.747182 247.349 5.19006 264.947 1.63534 281.785C0.620302 286.469 -1.02914 291.538 0.874062 296.103C4.04814 303.573 10.2653 306.864 18.3877 305.725C18.1339 307.505 18.6414 312.305 19.7854 312.431Z" fill="#FFD340"/>
<path d="M134.004 78.4645C125.501 76.182 116.116 80.996 111.414 89.2254C109.516 92.6293 108.309 96.3725 107.861 100.242C107.48 103.226 107.48 106.246 107.861 109.23C108.483 113.155 110.073 116.863 112.487 120.023C114.902 123.183 118.065 125.696 121.693 127.335C125.235 128.655 129.083 128.926 132.775 128.116C136.468 127.306 139.847 125.45 142.507 122.77C154.436 111.003 150.503 82.8946 134.004 78.4645Z" fill="#643CFF"/>
<path d="M127.024 139.108C124.867 148.35 127.405 158.099 130.579 167.088C133.753 176.077 137.684 185.066 138.445 194.563C139.207 204.06 136.033 214.566 127.921 219.631C130.431 216.934 132.055 213.537 132.576 209.893C133.096 206.25 132.488 202.535 130.833 199.246C131.538 204.443 131.016 209.733 129.308 214.692C128.248 217.507 126.534 220.031 124.306 222.056C122.077 224.081 119.399 225.549 116.491 226.339C117.784 224.931 118.768 223.269 119.38 221.46C119.992 219.65 120.218 217.733 120.044 215.832C119.986 213.872 119.515 211.946 118.663 210.179C117.81 208.413 116.595 206.845 115.095 205.577C116.461 208.72 116.968 212.167 116.566 215.569C116.164 218.971 114.868 222.207 112.807 224.947C115.854 218.236 113.061 210.387 109.635 203.931C106.21 197.347 101.386 191.649 97.9602 185.066C92.1246 173.875 90.7199 160.906 94.0249 148.73C96.3856 149.237 98.8392 149.106 101.132 148.35C109.891 145.448 119.155 143.788 127.024 139.108Z" fill="#C54016"/>
<path d="M64.077 192.536C69.0356 169.677 68.3827 145.962 62.1738 123.409C63.9501 126.955 68.1372 127.841 71.8188 129.487C79.9052 132.928 88.2689 135.681 96.8204 137.716C96.9436 156.988 98.9836 176.199 102.911 195.069C97.2755 199.032 90.5086 201.074 83.6165 200.892C76.3865 200.643 69.7866 196.841 64.077 192.536Z" fill="black"/>
<path d="M85.3969 167.467C81.0895 165.647 77.1679 163.027 73.8405 159.746C71.3719 157.705 69.0794 155.46 66.9869 153.036C67.7919 166.273 66.8125 179.558 64.0749 192.535C69.6576 196.841 76.3843 200.765 83.4917 200.892C90.3847 201.091 97.1557 199.047 102.782 195.069C100.775 184.979 99.2479 174.8 98.2056 164.567C96.5222 166.143 94.4478 167.243 92.1962 167.753C89.9447 168.263 87.5976 168.164 85.3969 167.467ZM138.572 126.069C137.947 131.349 136.225 136.44 133.516 141.018C130.806 145.596 127.169 149.56 122.837 152.656C113.319 159.111 100.119 159.491 89.2054 157.466C79.2587 155.73 70.4062 150.134 64.5845 141.903C61.8685 137.35 59.7768 132.453 58.3653 127.345C55.7653 117.979 53.7309 108.466 52.2729 98.8576C50.6235 89.3624 47.8321 78.6014 51.131 68.9776C54.8126 58.09 66.8683 51.5061 76.8939 47.327C88.8248 42.3906 104.816 39.3507 116.11 47.4536C117.382 48.3607 118.571 49.3779 119.663 50.4935C130.452 62.0139 136.288 80.7511 137.938 95.936C138.955 105.937 139.97 116.445 138.572 126.069Z" fill="#F7846C"/>
<path d="M50.8772 118.093C53.5676 120.914 55.5281 124.347 56.5888 128.094C54.9723 126.497 52.9573 125.36 50.7524 124.801C48.5954 124.295 46.6922 124.928 44.0256 124.042C46.4384 123.789 48.0879 123.536 48.976 122.523C49.8642 121.637 48.4685 117.587 44.4 113.787C46.7457 114.921 48.9249 116.37 50.8772 118.093ZM111.794 117.587C115.268 116.52 118.662 115.208 121.949 113.661C120.068 113.05 118.327 112.077 116.824 110.795C115.321 109.513 114.086 107.949 113.19 106.191C111.299 102.05 109.853 97.7219 108.876 93.2779C108.876 102.773 108.368 108.72 111.794 117.587Z" fill="#DD4040"/>
<path d="M135.527 82.5149C134.336 81.5977 132.936 80.9902 131.452 80.7472C129.967 80.5041 128.446 80.6331 127.024 81.1225C124.338 82.0347 121.578 82.713 118.775 83.1498C117.11 83.1652 115.472 82.7247 114.041 81.8763C112.61 81.0278 111.439 79.804 110.656 78.3379C114.554 76.4117 118.636 74.8823 122.841 73.7729C124.144 73.2893 125.57 73.2448 126.901 73.6463C128.393 74.2346 129.735 75.1452 130.832 76.3127C132.989 78.0847 133.624 80.1099 135.527 82.5149ZM69.5327 95.936C71.8278 93.0893 75.0696 91.1576 78.6701 90.4912C82.1523 89.9447 85.5889 89.1408 88.9516 88.0862C90.7278 87.4046 92.3186 86.3162 93.5957 84.9087C94.8729 83.5013 95.8007 81.8142 96.3044 79.9834C91.0196 80.3807 85.7641 81.0993 80.5671 82.1351C78.8556 82.4667 77.2203 83.1111 75.7436 84.0358C74.3426 85.195 73.1793 86.6133 72.3178 88.2128C70.6767 90.875 70.8036 92.8982 69.5327 95.936Z" fill="black"/>
<path d="M102.022 173.292C99.9923 181.521 97.074 188.991 94.5343 196.968C83.2533 189.488 73.4456 180.004 65.5995 168.988C61.7033 175.494 58.5531 182.416 56.2083 189.624C60.9028 194.31 64.8382 199.879 69.5327 204.438C77.4014 212.287 85.3969 220.39 90.3473 230.518C92.2505 221.403 94.6612 212.794 96.5665 203.678C101.142 211.401 105.45 218.49 110.018 226.088C104.433 208.994 108.876 190.004 102.022 173.292Z" fill="white"/>
<path d="M99.9924 101.381C98.4323 98.6617 96.1479 96.4267 93.3926 94.9234C91.4023 94.1384 89.2403 93.889 87.123 94.2C85.0058 94.511 83.0075 95.3715 81.3286 96.6954C78.1219 99.0708 75.9072 102.544 75.1094 106.448C81.3234 106.491 87.5016 105.506 93.3926 103.533C95.5495 102.91 97.8355 102.014 99.9924 101.381ZM137.177 93.9108C135.678 91.208 133.372 89.0391 130.579 87.7065C128.589 86.922 126.427 86.6728 124.309 86.9838C122.192 87.2948 120.194 88.1551 118.515 89.4786C115.33 91.7815 113.08 95.1489 112.175 98.9675C118.425 99.1074 124.652 98.1653 130.579 96.1829C132.736 95.6828 135.02 94.5436 137.177 93.9108Z" fill="#DD4040"/>
<path d="M74.9907 106.438C75.9975 104.155 77.539 102.147 79.4855 100.582C81.4321 99.0168 83.7268 97.9411 86.1768 97.445C88.6268 96.9488 91.1603 97.0468 93.5645 97.7306C95.9686 98.4144 98.173 99.6641 99.9923 101.375C99.9923 101.375 97.3278 105.172 89.0786 107.07C84.4219 108.241 79.523 108.021 74.9907 106.438ZM112.302 98.9675C113.309 96.6848 114.85 94.6765 116.797 93.1117C118.743 91.5468 121.038 90.4711 123.488 89.975C125.938 89.4788 128.471 89.5768 130.876 90.2606C133.28 90.9444 135.484 92.1941 137.303 93.9045C137.303 93.9045 134.639 97.7018 126.39 99.6004C121.734 100.784 116.832 100.564 112.302 98.9675Z" fill="white"/>
<path d="M89.586 97.2017C88.9868 99.5024 88.0022 101.686 86.674 103.659C85.7758 105.06 84.8038 106.412 83.762 107.71C85.555 107.675 87.3404 107.467 89.093 107.087C97.3423 105.188 100.007 101.391 100.007 101.391C97.1625 98.7721 93.4558 97.2819 89.586 97.2017ZM125.755 89.7317C124.22 93.4727 122.216 97.0043 119.79 100.242C122.006 100.258 124.217 100.045 126.389 99.6066C134.639 97.708 137.303 93.9108 137.303 93.9108C134.118 91.1175 129.994 89.6252 125.755 89.7317Z" fill="black"/>
<path d="M122.456 48.5845C120.32 45.9666 117.743 43.7395 114.841 42.0026C106.973 37.3172 97.074 37.8235 88.1903 39.5956C70.6767 43.1417 43.0085 52.8901 35.3936 69.4756C25.4949 90.7443 43.1354 115.686 38.0644 137.978C37.8106 139.243 37.4404 140.382 37.1762 141.648C32.9871 156.335 24.1034 167.476 17.0002 180.011C13.8282 185.835 10.781 192.417 10.781 199.516C10.781 205.72 13.8282 212.304 18.269 213.95C19.5399 218.253 22.0775 222.179 25.5032 222.938C24.6813 220.08 24.6238 217.057 25.3364 214.169C26.0491 211.282 27.5071 208.63 29.5655 206.48C28.6716 210.68 28.9834 215.046 30.4651 219.077C31.9467 223.108 34.5381 226.641 37.9416 229.269C40.9641 231.238 44.4766 232.329 48.0855 232.418C51.6943 232.508 55.2568 231.593 58.3735 229.776C60.5304 232.681 63.5735 234.341 66.369 233.066C63.9583 231.927 63.0701 228.13 62.9432 224.71C62.8563 221.29 63.284 217.876 64.212 214.582C63.4508 217.367 64.4658 220.027 65.1002 222.812C65.4481 225.593 66.6439 228.201 68.526 230.282C70.814 232.18 73.726 231.674 76.3946 231.041C71.5732 225.343 70.4292 216.101 70.9388 207.492C71.3194 199.01 73.4764 190.78 74.872 182.424C77.9172 163.181 70.0485 152.926 62.6895 135.322C60.0248 128.689 57.695 121.928 55.709 115.063C56.0896 115.443 71.4463 94.9358 66.2421 68.3468C75.5198 72.1082 85.7874 72.687 95.4308 69.9922C96.4132 70.3634 97.4359 70.6183 98.478 70.7517C102.902 71.8405 107.576 71.2068 111.549 68.9796C112.418 69.3317 113.308 69.6276 114.215 69.8657C120.305 71.1314 126.652 68.5999 131.983 65.3007C129.795 59.2233 126.572 53.5683 122.456 48.5845ZM15.3362 200.132C15.4119 198.722 15.7775 197.342 16.4106 196.079C17.0436 194.815 17.9303 193.695 19.0157 192.789C17.2673 198.788 16.8346 205.093 17.7469 211.275C17.7384 211.344 17.7453 211.413 17.7673 211.479C17.7892 211.545 17.8256 211.605 17.8738 211.655C15.6382 208.255 14.737 204.153 15.3424 200.132H15.3362ZM58.2404 229.506C56.6032 228.968 55.1399 228.004 54.0018 226.713C52.8637 225.422 52.0923 223.851 51.7674 222.162C51.4364 220.334 51.5397 218.455 52.0689 216.674C52.5981 214.893 53.5385 213.26 54.8146 211.908C54.9415 216.971 54.9415 222.542 56.8447 226.972C57.233 227.857 57.7001 228.705 58.2404 229.506ZM85.9044 67.9567C84.0433 67.2987 82.3565 66.2274 80.9714 64.8237C79.5862 63.4199 78.539 61.7205 77.9088 59.8538C79.5604 62.7588 82.3517 64.0308 85.27 65.5497C87.9365 66.9441 90.7279 68.3364 93.5192 69.4756C90.9179 69.3616 88.3496 68.8493 85.9044 67.9567ZM101.388 64.9168C98.8513 62.0572 97.2956 58.4647 96.9471 54.6621C98.9865 57.9799 101.368 61.076 104.052 63.9C106.084 66.0161 108.495 67.734 111.16 68.9651C109.33 69.0737 107.499 68.7657 105.806 68.0643C104.113 67.363 102.602 66.2866 101.388 64.9168Z" fill="#C54016"/>
<path d="M249.746 56.6873C247.97 50.6117 242.006 42.6354 237.31 38.4564C223.983 26.936 203.678 23.645 186.799 27.9486C169.285 32.5136 152.406 47.4536 153.802 66.8175C154.563 77.4519 165.225 88.0862 174.87 93.6576C172.331 102.14 170.56 103.786 161.544 108.72C165.098 110.619 182.231 110.492 189.971 100.109C205.581 105.933 224.499 104.288 233.884 98.5899C250.763 88.3394 254.316 72.8931 249.746 56.6873ZM186.16 66.3112C185.8 67.498 185.181 68.5903 184.347 69.5096C183.513 70.4288 182.485 71.1521 181.337 71.6273C180.167 72.0592 178.902 72.1695 177.674 71.9469C176.447 71.7242 175.301 71.1767 174.359 70.3616C173.44 69.5094 172.812 68.3923 172.562 67.1664C172.311 65.9406 172.451 64.6673 172.961 63.5245C173.979 61.7515 175.604 60.4036 177.537 59.7272C182.104 57.9552 187.941 60.3601 186.16 66.3112ZM211.162 66.3112C210.802 67.4982 210.182 68.5906 209.348 69.5099C208.513 70.4292 207.485 71.1524 206.336 71.6273C205.166 72.0592 203.901 72.1695 202.674 71.9469C201.446 71.7242 200.301 71.1767 199.358 70.3616C198.44 69.5094 197.812 68.3923 197.561 67.1664C197.31 65.9406 197.45 64.6673 197.96 63.5245C198.979 61.7515 200.603 60.4036 202.536 59.7272C207.233 57.9552 213.069 60.3601 211.166 66.3112H211.162ZM234.514 66.3112C234.154 67.4978 233.535 68.5901 232.7 69.5093C231.866 70.4285 230.839 71.1519 229.691 71.6273C228.52 72.0591 227.255 72.1694 226.027 71.9468C224.799 71.7241 223.654 71.1767 222.71 70.3616C221.794 69.5079 221.168 68.3907 220.918 67.1654C220.668 65.9401 220.806 64.6675 221.315 63.5245C222.332 61.7502 223.957 60.4018 225.891 59.7272C230.464 57.9552 236.288 60.3601 234.518 66.3112H234.514Z" fill="#FDB849"/>
<path d="M57.7308 93.531C49.2277 91.2485 39.8428 96.0625 35.1399 104.292C33.2422 107.695 32.035 111.438 31.5872 115.306C31.2066 118.29 31.2066 121.311 31.5872 124.295C32.2096 128.22 33.7996 131.929 36.2143 135.089C38.6289 138.249 41.7927 140.761 45.4213 142.399C48.9625 143.72 52.8107 143.991 56.503 143.182C60.1953 142.372 63.5744 140.515 66.2338 137.834C78.1626 126.069 74.2293 97.9612 57.7308 93.531Z" fill="#9778FF"/>
<path d="M83.8745 139.108C83.0377 139.939 82.4976 141.021 82.3371 142.187C82.1767 143.354 82.4047 144.541 82.9863 145.566C83.6086 146.576 84.5258 147.372 85.6148 147.847C86.7039 148.323 87.9126 148.454 89.0786 148.224C90.0953 148.042 91.0396 147.577 91.8029 146.883C92.5661 146.188 93.1172 145.293 93.3926 144.3C94.6614 139.235 87.554 135.695 83.8745 139.108Z" fill="black"/>
<path d="M87.5539 142.273C87.3002 142.908 86.7927 143.161 86.6658 143.794C77.4129 143.531 68.4052 140.767 60.6044 135.795C52.8037 130.824 46.5027 123.833 42.3743 115.568C43.4816 115.033 44.3757 114.141 44.9119 113.036C53.0405 128.727 69.7866 140.754 87.5539 142.273Z" fill="black"/>
<path d="M49.989 103.533C47.709 103.001 45.3207 103.177 43.1435 104.036C40.9664 104.896 39.1043 106.398 37.8065 108.342C36.7645 109.906 36.0715 111.676 35.7743 113.53C35.4788 114.947 35.4358 116.404 35.6474 117.836C35.9724 119.796 36.7966 121.641 38.0411 123.193C39.2856 124.744 40.9086 125.951 42.7548 126.698C44.6224 127.372 46.6333 127.551 48.5909 127.217C50.5486 126.884 52.3863 126.05 53.9244 124.797C60.3953 119.359 58.7458 105.815 49.989 103.533Z" fill="black"/>
<path d="M51.258 115.812C48.0813 105.706 46.7071 95.1222 47.1978 84.5421C47.7454 73.9114 51.8061 63.7606 58.746 55.6747C65.7264 47.9516 74.2295 43.6397 85.1432 40.355C76.3584 39.5199 67.5311 41.4366 59.889 45.8387C52.2469 50.2408 46.1699 56.9093 42.5032 64.9168C40.8038 68.9325 39.6105 73.143 38.9506 77.4519C36.5423 91.1572 37.5422 105.243 41.8626 118.473C45.1459 118.248 48.3461 117.342 51.258 115.812Z" fill="black"/>
<path d="M119.917 130.879C119.663 133.537 119.293 136.577 117.252 138.349C116.249 139.1 115.089 139.616 113.858 139.857C112.628 140.098 111.358 140.059 110.145 139.741C108.306 139.352 106.564 138.604 105.017 137.539C103.47 136.474 102.151 135.114 101.134 133.537C107.227 132.651 113.7 132.018 119.917 130.879Z" fill="white"/>
<path d="M97.8354 134.425C100.938 137.656 104.59 140.313 108.622 142.273C110.313 142.98 112.121 143.367 113.953 143.414C114.856 143.444 115.755 143.279 116.587 142.929C117.42 142.579 118.166 142.053 118.775 141.387C119.482 140.44 119.999 139.365 120.297 138.222C120.824 136.156 121.035 134.021 120.921 131.892C120.297 131.892 119.018 131.132 118.891 131.765C117.496 144.422 110.134 136.577 101.505 133.41C100.257 132.904 98.9774 134.035 97.8354 134.425Z" fill="#DD4040"/>
<path d="M114.841 125.561C118.013 124.548 121.822 124.042 123.979 125.561C124.282 125.908 124.513 126.313 124.659 126.75C124.804 127.188 124.86 127.65 124.825 128.109C124.79 128.569 124.663 129.017 124.452 129.427C124.242 129.838 123.951 130.202 123.598 130.499C122.92 131.028 122.142 131.415 121.31 131.638C116.491 133.413 111.033 133.413 106.08 134.035C103.541 134.417 97.5774 135.05 96.0527 134.162C101.895 132.904 108.749 127.461 114.841 125.561Z" fill="black"/>
<path d="M352.927 1.10847C345.896 -0.3256 338.652 -0.368605 331.605 0.981892C323.567 2.46968 315.947 5.67311 309.266 10.3727C302.585 15.0723 297.002 21.157 292.898 28.21C285.029 42.3906 284.649 60.8747 293.025 74.8021C301.401 88.7295 319.168 98.2226 335.159 95.1848C337.195 103.752 336.301 112.753 332.62 120.755C336.934 117.888 340.635 114.196 343.511 109.894C346.386 105.591 348.378 100.762 349.372 95.687C369.933 91.8897 388.208 67.0748 388.588 46.1837C389.096 25.5437 373.361 5.53859 352.927 1.10847ZM342.899 75.4267C342.259 77.109 340.984 78.4746 339.348 79.2316C337.711 79.9885 335.843 80.0766 334.142 79.4771C333.034 79.1578 332.045 78.5186 331.3 77.6398C330.555 76.761 330.087 75.682 329.955 74.5386C329.848 73.3889 330.05 72.2316 330.541 71.1859C331.032 70.1402 331.793 69.244 332.747 68.5895C333.732 67.7867 334.937 67.2981 336.204 67.1871C337.472 67.0761 338.743 67.3478 339.854 67.967C341.117 68.6995 342.101 69.829 342.652 71.1788C343.203 72.5285 343.29 74.0224 342.899 75.4267ZM357.367 37.4542C356.519 42.0406 353.927 46.1226 350.133 48.848C348.484 49.9892 346.454 50.7487 344.933 52.0144C343.153 53.7694 342.07 56.1084 341.886 58.5984C341.729 59.6368 341.274 60.6075 340.576 61.3936C339.878 62.1797 338.967 62.7475 337.953 63.0285C336.977 63.1621 335.983 63.0594 335.055 62.7289C334.127 62.3984 333.292 61.85 332.622 61.1299C331.226 59.2313 331.607 56.318 331.86 54.1662C332.146 51.8278 333.117 49.6255 334.652 47.8354C336.94 45.3039 340.617 44.2913 342.774 41.5066C343.379 40.7842 343.831 39.9467 344.102 39.0451C344.373 38.1434 344.457 37.1962 344.35 36.2609C344.244 35.3256 343.948 34.4217 343.481 33.6039C343.013 32.7861 342.385 32.0714 341.632 31.5031C338.587 29.4779 334.768 30.7436 332.114 32.6443C329.202 34.6695 325.25 39.2262 321.327 37.0744C320.324 36.4586 319.554 35.5271 319.14 34.4266C318.725 33.3262 318.69 32.1194 319.039 30.9968C320.074 27.233 322.299 23.903 325.383 21.5016C329.064 18.1471 333.848 16.2524 338.833 16.175C346.194 16.4282 352.794 19.8457 355.839 26.6828C357.29 30.0727 357.817 33.7851 357.367 37.4438V37.4542Z" fill="#14D29B"/>
<path d="M176.012 322.308L171.95 319.015C183.373 266.22 196.784 213.806 212.181 161.772C266.118 147.338 320.944 134.678 375.515 122.776L379.578 126.069L176.012 322.308ZM263.707 343.957C255.458 345.096 219.542 337.246 215.226 336.36C210.91 335.474 204.186 332.563 231.852 323.827C259.518 315.091 259.516 310.406 303.05 319.521L263.707 343.957Z" fill="black"/>
<path d="M336.428 267.613C348.418 219.78 362.82 172.581 379.578 126.196C324.874 138.096 270.18 150.755 216.244 165.189C200.887 217.097 187.56 269.638 176.012 322.445C228.801 306.102 284.902 286.857 336.428 267.613Z" fill="#643CFF"/>
<path d="M288.962 264.449C293.405 262.803 299.622 268.626 301.274 277.362C302.796 285.718 302.162 296.227 295.816 298.632C289.47 301.037 301.528 302.303 305.842 296.86C310.284 291.416 310.284 283.059 308.887 275.336C307.618 267.613 297.592 259.51 291.119 261.282C284.775 262.93 288.962 264.449 288.962 264.449Z" fill="black"/>
<path d="M319.803 303.948C318.534 295.974 317.137 287.998 315.613 280.022C312.701 264.322 309.267 248.623 305.461 233.05C291.88 237.33 277.885 240.173 263.707 241.532C264.722 271.159 265.737 300.658 266.754 330.284C266.881 333.449 266.245 342.185 263.707 343.83C267.262 344.463 316.502 325.219 318.788 322.182C322.848 316.863 320.818 310.026 319.803 303.948ZM301.274 294.327C299.919 296.266 298.02 297.764 295.816 298.632C294.057 299.087 292.21 299.081 290.454 298.616C288.697 298.15 287.091 297.24 285.79 295.974C283.233 293.401 281.47 290.148 280.713 286.604C279.573 282.688 279.442 278.548 280.332 274.569C280.812 272.588 281.689 270.726 282.91 269.094C284.132 267.462 285.673 266.094 287.44 265.073C289.221 264.087 291.253 263.645 293.284 263.803C295.315 263.96 297.254 264.71 298.861 265.959C306.222 271.919 306.603 287.236 301.274 294.327Z" fill="#9778FF"/>
<path d="M263.707 241.533L261.804 246.098C261.804 246.098 264.468 314.844 263.707 325.226C263.256 331.685 261.708 338.02 259.131 343.963C260.653 344.108 262.185 344.108 263.707 343.963C265.864 343.71 268.404 341.68 267.896 328.137C267.516 314.332 263.707 241.533 263.707 241.533ZM105.704 285.338L104.816 283.819C110.619 280.202 117.093 277.791 123.852 276.729L124.106 278.501C117.568 279.5 111.305 281.827 105.704 285.338Z" fill="black"/>
</svg>
